<mxfile host="app.diagrams.net" modified="2023-08-28T22:55:17.968Z" agent="Mozilla/5.0 (Windows NT 10.0; Win64; x64) AppleWebKit/537.36 (KHTML, like Gecko) Chrome/116.0.0.0 Safari/537.36" etag="q3vt8r3_IC9M5nbo7FH8" version="21.6.9" type="device">
  <diagram name="PÃ¡gina-1" id="hSor9YVo2nSWqOXVVtke">
    <mxGraphModel dx="1185" dy="439" grid="1" gridSize="10" guides="1" tooltips="1" connect="1" arrows="1" fold="1" page="1" pageScale="1" pageWidth="827" pageHeight="1169" math="0" shadow="0">
      <root>
        <mxCell id="0" />
        <mxCell id="1" parent="0" />
        <mxCell id="7DshYgBG8LUK9Rmk1uYK-4" value="1" style="edgeStyle=orthogonalEdgeStyle;rounded=0;orthogonalLoop=1;jettySize=auto;html=1;endArrow=none;endFill=0;" edge="1" parent="1" source="7DshYgBG8LUK9Rmk1uYK-1" target="7DshYgBG8LUK9Rmk1uYK-2">
          <mxGeometry relative="1" as="geometry" />
        </mxCell>
        <mxCell id="7DshYgBG8LUK9Rmk1uYK-1" value="Cliente" style="rounded=0;whiteSpace=wrap;html=1;" vertex="1" parent="1">
          <mxGeometry x="184" y="370" width="120" height="60" as="geometry" />
        </mxCell>
        <mxCell id="7DshYgBG8LUK9Rmk1uYK-2" value="Aluga" style="rhombus;whiteSpace=wrap;html=1;" vertex="1" parent="1">
          <mxGeometry x="374" y="360" width="80" height="80" as="geometry" />
        </mxCell>
        <mxCell id="7DshYgBG8LUK9Rmk1uYK-5" value="n" style="edgeStyle=orthogonalEdgeStyle;rounded=0;orthogonalLoop=1;jettySize=auto;html=1;endArrow=none;endFill=0;" edge="1" parent="1" source="7DshYgBG8LUK9Rmk1uYK-3" target="7DshYgBG8LUK9Rmk1uYK-2">
          <mxGeometry relative="1" as="geometry" />
        </mxCell>
        <mxCell id="7DshYgBG8LUK9Rmk1uYK-3" value="Livro" style="rounded=0;whiteSpace=wrap;html=1;" vertex="1" parent="1">
          <mxGeometry x="524" y="370" width="120" height="60" as="geometry" />
        </mxCell>
        <mxCell id="7DshYgBG8LUK9Rmk1uYK-6" value="Id" style="endArrow=oval;html=1;rounded=0;endFill=1;" edge="1" parent="1">
          <mxGeometry x="1" y="10" width="50" height="50" relative="1" as="geometry">
            <mxPoint x="200" y="370" as="sourcePoint" />
            <mxPoint x="200" y="320" as="targetPoint" />
            <mxPoint x="10" y="-10" as="offset" />
          </mxGeometry>
        </mxCell>
        <mxCell id="7DshYgBG8LUK9Rmk1uYK-7" value="Nome" style="endArrow=oval;html=1;rounded=0;endFill=0;" edge="1" parent="1">
          <mxGeometry x="1" y="10" width="50" height="50" relative="1" as="geometry">
            <mxPoint x="230" y="370" as="sourcePoint" />
            <mxPoint x="230" y="320" as="targetPoint" />
            <mxPoint x="10" y="-10" as="offset" />
          </mxGeometry>
        </mxCell>
        <mxCell id="7DshYgBG8LUK9Rmk1uYK-9" value="Data da&amp;nbsp;&lt;br&gt;retirada" style="endArrow=oval;html=1;rounded=0;endFill=0;exitX=0;exitY=0;exitDx=0;exitDy=0;" edge="1" parent="1" source="7DshYgBG8LUK9Rmk1uYK-2">
          <mxGeometry x="1" y="24" width="50" height="50" relative="1" as="geometry">
            <mxPoint x="390" y="380" as="sourcePoint" />
            <mxPoint x="394" y="330" as="targetPoint" />
            <mxPoint x="10" y="-20" as="offset" />
          </mxGeometry>
        </mxCell>
        <mxCell id="7DshYgBG8LUK9Rmk1uYK-10" value="Data de&lt;br&gt;&amp;nbsp;entrega" style="endArrow=oval;html=1;rounded=0;endFill=0;exitX=1;exitY=0;exitDx=0;exitDy=0;" edge="1" parent="1" source="7DshYgBG8LUK9Rmk1uYK-2">
          <mxGeometry x="1" y="-26" width="50" height="50" relative="1" as="geometry">
            <mxPoint x="430" y="370" as="sourcePoint" />
            <mxPoint x="434" y="330" as="targetPoint" />
            <mxPoint x="-10" y="-20" as="offset" />
          </mxGeometry>
        </mxCell>
        <mxCell id="7DshYgBG8LUK9Rmk1uYK-11" value="Id" style="endArrow=oval;html=1;rounded=0;endFill=1;" edge="1" parent="1">
          <mxGeometry x="1" y="10" width="50" height="50" relative="1" as="geometry">
            <mxPoint x="540" y="370" as="sourcePoint" />
            <mxPoint x="540" y="320" as="targetPoint" />
            <mxPoint x="10" y="-10" as="offset" />
          </mxGeometry>
        </mxCell>
        <mxCell id="7DshYgBG8LUK9Rmk1uYK-12" value="Titulo" style="endArrow=oval;html=1;rounded=0;endFill=0;" edge="1" parent="1">
          <mxGeometry x="1" y="10" width="50" height="50" relative="1" as="geometry">
            <mxPoint x="570" y="370" as="sourcePoint" />
            <mxPoint x="570" y="320" as="targetPoint" />
            <mxPoint x="10" y="-10" as="offset" />
          </mxGeometry>
        </mxCell>
      </root>
    </mxGraphModel>
  </diagram>
</mxfile>
